# xmcd
#
# Track frame offsets: 
#        150
#        12423
#        26101
#        39947
#        53427
#        67471
#        80958
#        96101
#        111154
#        124984
#        140595
#        153548
#        165987
#        179307
#        194046
#        206022
#        218349
#        231348
#        247176
#        259878
#
# Disc length: 3636 seconds
#
# Revision: 2
# Processed by: cddbd v1.5.2PL0 Copyright (c) Steve Scherf et al.
# Submitted via: ExactAudioCopy v0.99pb5
#
DISCID=2c0e3214
DTITLE=Francisco Canaro - Canta Roberto Maida  Vol. 2
DYEAR=1900
DGENRE=Tango
TTITLE0=Alma de bandoneon
TTITLE1=Novia
TTITLE2=Golondrinas
TTITLE3=Ciego
TTITLE4=Soledad
TTITLE5=Secreto de amor
TTITLE6=Poema
TTITLE7=Casas viejas
TTITLE8=Nena
TTITLE9=Solo una novia
TTITLE10=Dónde?
TTITLE11=Como las flores
TTITLE12=Silueta porteña
TTITLE13=Envidia
TTITLE14=Viejos tiempos
TTITLE15=El dia que yo pueda
TTITLE16=De puro guapo
TTITLE17=Sueño de muñeca
TTITLE18=Copos de nieve
TTITLE19=Milonga del corazón
EXTD=
EXTT0=
EXTT1=
EXTT2=
EXTT3=
EXTT4=
EXTT5=
EXTT6=
EXTT7=
EXTT8=
EXTT9=
EXTT10=
EXTT11=
EXTT12=
EXTT13=
EXTT14=
EXTT15=
EXTT16=
EXTT17=
EXTT18=
EXTT19=
PLAYORDER=
